<svg width="19" height="19" viewBox="0 0 19 19" fill="none" xmlns="http://www.w3.org/2000/svg">
<path d="M18.2182 9.5C18.65 9.5 19.0033 9.14939 18.9679 8.71908C18.8192 6.9166 18.1583 5.18798 17.0554 3.74099C15.794 2.0861 14.0241 0.891131 12.0176 0.339679C10.0112 -0.211773 7.87922 -0.089209 5.9492 0.688542C4.01918 1.46629 2.39789 2.85621 1.33443 4.64476C0.270956 6.4333 -0.175872 8.52155 0.0625857 10.5887C0.301044 12.6558 1.2116 14.5875 2.65436 16.0869C4.09712 17.5863 5.99228 18.5706 8.04869 18.8885C9.84675 19.1664 11.6811 18.9215 13.3357 18.1912C13.7307 18.0169 13.87 17.539 13.6638 17.1596V17.1596C13.4576 16.7803 12.9841 16.6439 12.5863 16.8118C11.2351 17.3821 9.74701 17.5689 8.28756 17.3433C6.5696 17.0777 4.98636 16.2554 3.78105 15.0028C2.57575 13.7501 1.81506 12.1364 1.61585 10.4095C1.41664 8.68259 1.78992 6.93804 2.67836 5.44386C3.5668 3.94968 4.92124 2.78853 6.53361 2.13878C8.14597 1.48904 9.92707 1.38665 11.6033 1.84734C13.2795 2.30803 14.7581 3.30632 15.8119 4.68884C16.7071 5.86334 17.2537 7.25995 17.398 8.71945C17.4404 9.14913 17.7865 9.5 18.2182 9.5V9.5Z" fill="#D9D9D9"/>
</svg>
